# xmcd
#
# Track frame offsets:
#	150
#	13752
#	30865
#	42118
#	57571
#	75354
#	85313
#	99913
#	110419
#	126534
#	141440
#	155512
#
# Disc length: 2242 seconds
# Revision: 0
# Processed by: cddbd v1.5.2PL0 Copyright (c) Steve Scherf et al.
# Submitted via: dBpowerAMP V12.0
#
DISCID=9408c00c
DTITLE=Marty Raybon - Southern Roots and Branches
DYEAR=2012
DGENRE=Country
TTITLE0=Dirt Road Heartache
TTITLE1=Long Hard Road
TTITLE2=Rocky Road Blues
TTITLE3=Get Up In Jesus Name
TTITLE4=Beulah Land
TTITLE5=White House Blues
TTITLE6=Big Pain
TTITLE7=Home Run Man
TTITLE8=Ghost In This House
TTITLE9=Prayer Bells Of Heaven
TTITLE10=Next To You Next To Me
TTITLE11=Down The Road
EXTD=
EXTT0=
EXTT1=
EXTT2=
EXTT3=
EXTT4=
EXTT5=
EXTT6=
EXTT7=
EXTT8=
EXTT9=
EXTT10=
EXTT11=
PLAYORDER=
